<?xml version="1.0" standalone="no"?>
<!DOCTYPE svg PUBLIC "-//W3C//DTD SVG 20010904//EN"
 "http://www.w3.org/TR/2001/REC-SVG-20010904/DTD/svg10.dtd">
<svg version="1.0" xmlns="http://www.w3.org/2000/svg"
 width="700.000000pt" height="653.000000pt" viewBox="0 0 700.000000 653.000000"
 preserveAspectRatio="xMidYMid meet">
<metadata>
Created by potrace 1.15, written by Peter Selinger 2001-2017
</metadata>
<g transform="translate(0.000000,653.000000) scale(0.100000,-0.100000)"
fill="#000000" stroke="none">
<path d="M3490 6202 c-8 -2 -669 -657 -1468 -1456 -1295 -1294 -1452 -1454
-1452 -1481 0 -39 16 -55 54 -55 27 0 112 81 741 709 l710 710 661 -658 661
-657 -86 -44 c-127 -65 -233 -173 -294 -300 -46 -95 -81 -213 -75 -256 l3 -22
60 25 c33 14 61 26 63 27 1 2 7 29 13 61 32 175 124 283 304 362 27 11 53 19
58 16 4 -2 7 -640 7 -1416 l-1 -1412 22 -17 c12 -10 29 -18 38 -18 8 0 672
656 1473 1457 1541 1541 1486 1483 1442 1527 -44 44 10 95 -1459 -1374 -764
-764 -1393 -1390 -1398 -1390 -4 0 -6 606 -5 1347 l3 1348 85 45 c166 89 283
226 338 400 22 67 45 190 37 198 -5 5 -115 -37 -128 -48 -4 -4 -12 -37 -17
-73 -14 -99 -44 -166 -101 -230 -59 -67 -198 -155 -211 -134 -4 6 -8 635 -8
1396 0 960 -3 1387 -10 1396 -13 16 -40 23 -60 17z m-40 -1512 c0 -715 -3
-1300 -6 -1300 -4 0 -301 291 -661 647 l-654 647 653 653 c359 359 656 653
660 653 5 0 8 -585 8 -1300z"/>
</g>
</svg>
